<svg width="29" height="29" viewBox="0 0 29 29" fill="none" xmlns="http://www.w3.org/2000/svg">
<path d="M14.5 15.9788C17.4771 15.9788 19.8905 13.5654 19.8905 10.5883C19.8905 7.61127 17.4771 5.19788 14.5 5.19788C11.5229 5.19788 9.10956 7.61127 9.10956 10.5883C9.10956 13.5654 11.5229 15.9788 14.5 15.9788Z" stroke="white" stroke-width="1.5" stroke-miterlimit="10" stroke-linecap="round" stroke-linejoin="round"/>
<path d="M24.7562 23.2774C23.5159 21.1307 20.4152 16.0265 14.5 16.0265C8.10779 16.0265 5.48412 21.1307 4.24384 23.2774" stroke="white" stroke-width="1.5" stroke-miterlimit="10" stroke-linecap="round" stroke-linejoin="round"/>
<path d="M14.5 28C21.9558 28 28 21.9558 28 14.5C28 7.04416 21.9558 1 14.5 1C7.04416 1 1 7.04416 1 14.5C1 21.9558 7.04416 28 14.5 28Z" stroke="white" stroke-width="1.5" stroke-miterlimit="10" stroke-linecap="round" stroke-linejoin="round"/>
<path d="M12.6396 12.1625C12.6396 12.1625 13.3551 13.0212 14.5 13.0212C15.6449 13.0212 16.3127 12.1625 16.3127 12.1625" stroke="white" stroke-width="1.5" stroke-miterlimit="10" stroke-linecap="round" stroke-linejoin="round"/>
<path d="M12.8304 8.68024V9.6343" stroke="white" stroke-width="1.5" stroke-miterlimit="10" stroke-linecap="round" stroke-linejoin="round"/>
<path d="M16.1696 8.68024V9.6343" stroke="white" stroke-width="1.5" stroke-miterlimit="10" stroke-linecap="round" stroke-linejoin="round"/>
</svg>
