<svg width="18" height="14" viewBox="0 0 18 14" fill="none" xmlns="http://www.w3.org/2000/svg">
<path d="M8.20361 0.5C10.7408 0.5 12.7202 2.37278 12.7202 4.5918C12.7202 6.43238 11.8911 8.57879 10.8501 10.2842C10.3327 11.1317 9.77669 11.8475 9.27197 12.3438C9.01933 12.5922 8.78956 12.7761 8.59326 12.8945C8.38951 13.0175 8.26189 13.0459 8.20361 13.0459C8.14526 13.0458 8.01821 13.0171 7.81494 12.8945C7.6186 12.776 7.38797 12.5922 7.13525 12.3438C6.63056 11.8475 6.07549 11.1317 5.55811 10.2842C4.517 8.57875 3.68705 6.43246 3.68701 4.5918C3.68701 2.37285 5.66655 0.500114 8.20361 0.5Z" stroke="white"/>
<circle cx="8.20373" cy="5.01684" r="2.00842" stroke="white"/>
<line x1="17.0293" y1="13.2487" x2="0.499886" y2="13.2487" stroke="white" stroke-linecap="round"/>
</svg>
