<svg width="20" height="15" viewBox="0 0 20 15" fill="none" xmlns="http://www.w3.org/2000/svg">
<g clip-path="url(#clip0_4027_1671)">
<path d="M11.6369 0.716553H8.83887V2.24317H11.6369V0.716553Z" stroke="white" stroke-miterlimit="10" stroke-linecap="round" stroke-linejoin="round"/>
<path d="M10.9097 2.24316C10.9097 2.24316 10.7697 3.28012 11.2454 3.48174C11.6931 3.71218 13.3999 4.25946 13.3999 5.09478V12.9007C13.3999 13.6496 12.8123 14.2545 12.0848 14.2545H8.36342C7.63593 14.2545 7.04834 13.6496 7.04834 12.9007V5.12358C7.04834 4.37467 9.1189 3.51055 9.37072 3.36653C9.76245 3.02088 9.53861 2.24316 9.53861 2.24316H10.9097V2.24316Z" stroke="white" stroke-miterlimit="10" stroke-linecap="round" stroke-linejoin="round"/>
<path d="M13.4001 8.26319C13.7078 7.94634 14.0716 7.6583 14.4913 7.48548C14.6872 7.39906 14.911 7.39906 15.1069 7.45667C15.3027 7.51428 15.6105 7.60069 15.8623 7.57189C16.31 7.54308 16.7857 7.34145 17.0655 7.42787C18.6324 7.88873 19.4438 9.27133 19.3039 11.0284C19.164 12.6702 17.9049 14.0528 16.31 14.2545C15.1628 14.3985 14.0996 13.9664 13.3721 13.1887" stroke="white" stroke-miterlimit="10" stroke-linecap="round" stroke-linejoin="round"/>
<path d="M15.8623 7.39915C15.8623 7.39915 16.4779 6.18938 17.1774 5.69971" stroke="white" stroke-miterlimit="10" stroke-linecap="round" stroke-linejoin="round"/>
<path d="M7.04831 8.66653C6.65658 7.88881 6.15293 7.0823 5.39745 6.65023C5.00573 6.4198 4.4741 6.30458 4.02641 6.391C3.80256 6.4486 3.57872 6.53502 3.38286 6.70784C3.29891 6.79425 3.24295 6.88067 3.18699 6.96708C2.85123 7.51436 2.96315 8.32088 3.04709 8.69533C3.13103 9.1562 3.35487 9.58826 3.63468 10.0203C3.99843 10.5964 4.50208 11.1149 5.03371 11.5757C5.70524 12.1806 6.46071 12.6703 7.07629 13.0448" stroke="white" stroke-miterlimit="10" stroke-linecap="round" stroke-linejoin="round"/>
<path d="M3.13102 7.08233C3.13102 7.08233 0.724692 6.33342 0.696712 5.5269C0.668731 4.72039 2.03978 5.41169 2.03978 5.41169C-0.646354 2.0416 1.95584 0.486169 3.18698 4.31713C3.80255 2.93453 5.76119 4.23071 3.99842 6.39103C4.0264 6.39103 3.49477 6.30462 3.13102 7.08233Z" stroke="white" stroke-miterlimit="10" stroke-linecap="round" stroke-linejoin="round"/>
</g>
<defs>
<clipPath id="clip0_4027_1671">
<rect width="20" height="15" fill="white"/>
</clipPath>
</defs>
</svg>
