<svg width="31" height="34" viewBox="0 0 31 34" fill="none" xmlns="http://www.w3.org/2000/svg">
<path d="M22.5889 10.1252C22.7191 10.6463 22.7843 11.1673 22.7843 11.7535C22.7843 15.1405 20.4394 18.0716 17.313 18.8532C16.7267 19.0486 16.0754 19.1138 15.4241 19.1138C11.3206 19.1138 8.06384 15.7919 8.06384 11.7535C8.06384 11.1673 8.12898 10.6463 8.25925 10.1252" stroke="white" stroke-width="1.5" stroke-miterlimit="10" stroke-linecap="round" stroke-linejoin="round"/>
<path d="M29.8189 32.9223C29.2978 29.0793 27.0832 18.9835 15.4241 19.1137C15.359 19.1137 15.359 19.1137 15.2939 19.1137C15.2287 19.1137 15.2287 19.1137 15.1636 19.1137C3.50451 18.9835 1.2248 29.0142 0.76886 32.9223" stroke="white" stroke-width="1.5" stroke-miterlimit="10" stroke-linecap="round" stroke-linejoin="round"/>
<path d="M10.0833 20.2862V27.1253" stroke="white" stroke-width="1.5" stroke-miterlimit="10" stroke-linecap="round" stroke-linejoin="round"/>
<path d="M20.9607 20.2862V27.1253" stroke="white" stroke-width="1.5" stroke-miterlimit="10" stroke-linecap="round" stroke-linejoin="round"/>
<path d="M7.08704 32.9224V27.451H23.4358V32.9224" stroke="white" stroke-width="1.5" stroke-miterlimit="10" stroke-linecap="round" stroke-linejoin="round"/>
<path d="M24.2173 10.1252H6.37041C5.52366 10.1252 4.87231 9.47387 4.87231 8.62712C4.87231 7.78037 5.52366 7.12903 6.37041 7.12903H24.2173C25.064 7.12903 25.7154 7.78037 25.7154 8.62712C25.7154 9.40874 25.064 10.1252 24.2173 10.1252Z" stroke="white" stroke-width="1.5" stroke-miterlimit="10" stroke-linecap="round" stroke-linejoin="round"/>
<path d="M22.7192 7.06389C22.7192 7.06389 21.8073 1.0715 19.5928 1.00637C17.3782 0.941234 16.1406 1.39718 15.2939 1.39718C14.4471 1.39718 13.2096 0.941234 10.995 1.00637C8.78041 1.0715 7.86853 7.06389 7.86853 7.06389" stroke="white" stroke-width="1.5" stroke-miterlimit="10" stroke-linecap="round" stroke-linejoin="round"/>
</svg>
