<svg width="361" height="441" viewBox="0 0 361 441" fill="none" xmlns="http://www.w3.org/2000/svg">
<path d="M180.375 0L0 80.1667V200.417C0 311.648 76.96 415.664 180.375 440.917C283.79 415.664 360.75 311.648 360.75 200.417V80.1667L180.375 0ZM180.375 120.25C202.421 120.25 220.458 138.287 220.458 160.333C220.458 182.379 202.421 200.417 180.375 200.417C158.329 200.417 140.292 182.379 140.292 160.333C140.292 138.287 158.329 120.25 180.375 120.25ZM180.375 320.667C146.905 320.667 119.047 303.832 104.217 278.579C109.427 252.926 146.905 240.5 180.375 240.5C213.845 240.5 251.322 252.926 256.533 278.579C241.702 303.832 213.845 320.667 180.375 320.667Z" fill="white"/>
</svg>
