<svg width="594" height="678" viewBox="0 0 594 678" fill="none" xmlns="http://www.w3.org/2000/svg">
<path d="M474.735 180.45C474.055 216.57 462.155 251.45 441.445 280.57C413.195 320.31 369.115 346.67 320.785 352.71C310.685 353.977 299.908 354.387 288.455 353.94C255.665 352.67 224.145 342.73 197.095 324.44C176.568 310.567 159.528 292.69 145.975 270.81C132.895 249.71 124.638 226.433 121.205 200.98C120.112 192.907 119.662 183.813 119.855 173.7C120.048 163.587 120.842 154.513 122.235 146.48C126.642 121.18 135.782 98.2367 149.655 77.65C164.028 56.2967 181.735 39.08 202.775 26C230.505 8.75004 262.385 0.0200403 295.195 4.03223e-05C306.655 -0.00662634 317.408 0.81338 327.455 2.46005C375.515 10.34 418.565 38.35 445.285 79.14C464.865 109.02 475.425 144.33 474.735 180.45ZM158.095 100.21C150.828 113.397 145.748 126.82 142.855 140.48C140.655 150.893 139.355 160.39 138.955 168.97C138.662 175.317 138.775 181.78 139.295 188.36C139.882 195.727 140.718 202.147 141.805 207.62C147.972 238.673 162.062 265.7 184.075 288.7C188.025 292.83 193.085 297.24 197.875 301.15C216.215 316.11 237.085 326.133 260.485 331.22C288.898 337.393 317.308 336.187 345.715 327.6C353.362 325.293 360.568 322.42 367.335 318.98C400.682 302.04 425.185 276.74 440.845 243.08C449.445 224.6 454.352 204.207 455.565 181.9C455.812 177.307 455.635 171.72 455.035 165.14C454.442 158.7 453.708 153.143 452.835 148.47C449.948 132.99 444.812 118.023 437.425 103.57C413.815 57.38 368.125 26.75 316.675 20.19C313.865 19.83 311.595 20.02 309.115 19.55C306.988 19.1567 305.098 18.9434 303.445 18.91C277.932 18.3834 254.398 22.7601 232.845 32.0401C200.345 46.0267 175.428 68.75 158.095 100.21Z" fill="white"/>
<path d="M296.645 389.56C307.818 389.56 318.705 389.787 329.305 390.24C335.172 390.487 343.922 391.077 355.555 392.01C375.635 393.623 395.128 396.55 414.035 400.79C436.108 405.743 455.948 412.373 473.555 420.68C501.585 433.91 526.585 452.3 546.095 476.19C571.835 507.71 587.045 549.16 591.685 589.98C592.438 596.56 592.975 602.47 593.295 607.71C593.795 615.723 592.942 623.8 590.735 631.94C584.925 653.4 566.545 669.63 545.315 674.94C543.888 675.293 541.528 675.737 538.235 676.27C531.995 677.28 524.895 676.99 518.805 676.99C500.212 676.977 426.188 676.99 296.735 677.03C167.282 677.077 93.2615 677.11 74.6749 677.13C68.5849 677.13 61.4849 677.43 55.2449 676.42C51.9449 675.893 49.5815 675.453 48.1549 675.1C26.9249 669.8 8.53488 653.58 2.71488 632.13C0.501545 623.99 -0.358457 615.913 0.134877 607.9C0.454877 602.66 0.988201 596.75 1.73487 590.17C6.35487 549.34 21.5349 507.88 47.2549 476.35C66.7449 452.44 91.7349 434.04 119.755 420.79C137.362 412.47 157.198 405.827 179.265 400.86C198.172 396.613 217.665 393.677 237.745 392.05C249.378 391.11 258.128 390.513 263.995 390.26C274.588 389.8 285.472 389.567 296.645 389.56ZM46.0049 512.38C43.6249 516.66 42.0082 519.707 41.1549 521.52C31.6749 541.673 25.2682 562.743 21.9349 584.73C20.4349 594.643 19.4682 602.643 19.0349 608.73C18.6615 613.97 19.1515 619.303 20.5049 624.73C22.3349 632.06 25.5149 638.46 30.7849 643.71C39.9182 652.817 50.6715 657.373 63.0449 657.38C321.552 657.433 476.722 657.43 528.555 657.37C540.795 657.35 551.402 653.407 560.375 645.54C567.415 639.36 572.935 629.69 573.905 619.81C574.278 615.97 574.458 613.867 574.445 613.5C574.012 602.52 572.985 592.153 571.365 582.4C566.878 555.313 557.942 530.33 544.555 507.45C527.365 478.09 500.095 454.85 469.905 440.14C460.585 435.593 452.032 431.973 444.245 429.28C431.105 424.727 417.122 420.963 402.295 417.99C383.442 414.203 364.112 411.647 344.305 410.32C333.418 409.587 325.918 409.173 321.805 409.08C299.238 408.573 278.472 408.757 259.505 409.63C250.725 410.03 239.585 411.13 231.805 411.94C222.072 412.94 211.142 414.51 199.015 416.65C183.062 419.47 166.782 423.697 150.175 429.33C123.075 438.53 97.7649 452.66 76.8649 472.34C64.4449 484.04 54.2549 497.6 46.0049 512.38Z" fill="white"/>
</svg>
