<svg width="800" height="800" viewBox="0 0 800 800" fill="none" xmlns="http://www.w3.org/2000/svg">
<path fill-rule="evenodd" clip-rule="evenodd" d="M800 669.461C800 692.523 790.839 714.641 774.531 730.948C758.223 747.256 736.106 756.417 713.043 756.417H86.9565C75.5372 756.417 64.2297 754.168 53.6797 749.798C43.1296 745.428 33.5436 739.023 25.469 730.948C9.16146 714.641 0 692.523 0 669.461V165.113C0 146.663 7.32917 128.969 20.3752 115.923C33.4212 102.877 51.1154 95.5478 69.5652 95.5478H420.365L561.235 44.5218C565.518 42.9624 570.244 43.1651 574.378 45.0853C578.512 47.0055 581.716 50.4866 583.287 54.7652L598.104 95.5478H660.87C679.319 95.5478 697.014 102.877 710.06 115.923C723.106 128.969 730.435 146.663 730.435 165.113V199.896C748.885 199.896 766.579 207.225 779.625 220.271C792.671 233.317 800 251.011 800 269.461V669.461ZM69.5652 130.33C60.3403 130.33 51.4932 133.995 44.9702 140.518C38.4472 147.041 34.7826 155.888 34.7826 165.113C34.7826 174.338 38.4472 183.185 44.9702 189.708C51.4932 196.231 60.3403 199.896 69.5652 199.896H132.765C132.991 199.809 133.13 199.617 133.357 199.53L324.348 130.33H69.5652ZM575.27 133.478L556.8 82.6261L521.113 95.5478L425.27 130.33H425.096L233.043 199.896H599.409L575.27 133.478ZM695.652 165.113C695.652 155.888 691.988 147.041 685.465 140.518C678.942 133.995 670.094 130.33 660.87 130.33H610.73L636.017 199.896H695.652V165.113ZM730.435 234.678H69.5652C57.3185 234.615 45.3108 231.283 34.7826 225.026V669.461C34.7826 683.298 40.2795 696.569 50.064 706.353C59.8485 716.138 73.1191 721.635 86.9565 721.635H713.043C726.881 721.635 740.151 716.138 749.936 706.353C759.72 696.569 765.217 683.298 765.217 669.461V547.722H695.652C677.202 547.722 659.508 540.393 646.462 527.347C633.416 514.301 626.087 496.606 626.087 478.157C626.087 459.707 633.416 442.013 646.462 428.967C659.508 415.921 677.202 408.591 695.652 408.591H765.217V269.461C765.217 260.236 761.553 251.389 755.03 244.866C748.507 238.343 739.66 234.678 730.435 234.678ZM765.217 512.939V443.374H695.652C686.427 443.374 677.58 447.039 671.057 453.562C664.534 460.085 660.87 468.932 660.87 478.157C660.87 487.381 664.534 496.229 671.057 502.752C677.58 509.275 686.427 512.939 695.652 512.939H765.217ZM695.652 460.765H730.435V495.548H695.652V460.765Z" fill="white"/>
</svg>
