<svg width="33" height="33" viewBox="0 0 33 33" fill="none" xmlns="http://www.w3.org/2000/svg">
<g clip-path="url(#clip0_3001_15338)">
<path d="M21.0449 13.2373C21.0449 15.3373 19.968 17.1681 18.4065 18.245C17.9219 18.4065 17.3834 18.4603 16.845 18.4603C13.3989 18.4603 10.7066 15.7142 10.7066 12.3758C10.7066 10.2758 11.7835 8.44511 13.345 7.3682C13.8296 7.20666 14.3681 7.15282 14.9065 7.15282C18.2988 7.09897 21.0449 9.84509 21.0449 13.2373Z" fill="#F48953"/>
<path d="M27.0756 28.691C24.3833 30.7909 20.9911 32.0294 17.2757 32.0294C12.3758 32.0294 8.01434 29.8217 5.10669 26.3218C6.99128 23.6834 10.0605 20.7219 15.3912 20.7219C21.7987 20.7219 25.4064 25.891 27.0756 28.691Z" fill="#F48953"/>
<path d="M22.8757 12.3758C22.8757 15.1758 20.9372 17.5988 18.3526 18.2988C17.868 18.4604 17.3296 18.5142 16.7911 18.5142C13.3989 18.4604 10.7066 15.7142 10.7066 12.3758C10.7066 10.2759 11.7835 8.44512 13.345 7.36821C14.3142 6.66822 15.4988 6.29131 16.7911 6.29131C20.1834 6.23746 22.8757 8.98357 22.8757 12.3758Z" stroke="#073E3D" stroke-width="1.5" stroke-miterlimit="10" stroke-linecap="round" stroke-linejoin="round"/>
<path d="M28.3679 26.6987C26.9679 24.2757 23.468 18.5142 16.7912 18.5142C9.57589 18.5142 6.6144 24.2757 5.21442 26.6987" stroke="#073E3D" stroke-width="1.5" stroke-miterlimit="10" stroke-linecap="round" stroke-linejoin="round"/>
<path d="M32.0294 16.7912C32.0294 21.6911 29.714 25.9987 26.1602 28.7987C23.5757 30.8448 20.3449 32.0294 16.7912 32.0294C12.1066 32.0294 7.90667 29.8756 5.10671 26.5372C2.89905 23.8987 1.55292 20.5065 1.55292 16.7912C1.55292 8.39128 8.39128 1.55292 16.7912 1.55292C25.191 1.55292 32.0294 8.39128 32.0294 16.7912Z" stroke="#073E3D" stroke-width="1.5" stroke-miterlimit="10" stroke-linecap="round" stroke-linejoin="round"/>
<path d="M14.6912 14.1528C14.6912 14.1528 15.4989 15.122 16.7912 15.122C18.0835 15.122 18.8373 14.1528 18.8373 14.1528" stroke="#073E3D" stroke-width="1.5" stroke-miterlimit="10" stroke-linecap="round" stroke-linejoin="round"/>
<path d="M14.9066 10.222V11.2989" stroke="#073E3D" stroke-width="1.5" stroke-miterlimit="10" stroke-linecap="round" stroke-linejoin="round"/>
<path d="M18.6757 10.222V11.2989" stroke="#073E3D" stroke-width="1.5" stroke-miterlimit="10" stroke-linecap="round" stroke-linejoin="round"/>
</g>
<defs>
<clipPath id="clip0_3001_15338">
<rect width="33" height="33" fill="white"/>
</clipPath>
</defs>
</svg>
