<svg width="24" height="24" viewBox="0 0 24 24" fill="none" xmlns="http://www.w3.org/2000/svg">
<g clip-path="url(#clip0_4099_3475)">
<path d="M2.96745 17.3537C1.66331 15.1535 1.20714 12.5528 1.68457 10.04C2.16201 7.52726 3.54021 5.27516 5.56045 3.70652C7.58069 2.13788 10.104 1.36059 12.6568 1.52057C15.2095 1.68055 17.616 2.7668 19.4246 4.57539C21.2332 6.38397 22.3195 8.79053 22.4794 11.3432C22.6394 13.896 21.8621 16.4193 20.2935 18.4396C18.7248 20.4598 16.4727 21.838 13.96 22.3154C11.4472 22.7929 8.84655 22.3367 6.64627 21.0326L3.01124 22.0617C2.86231 22.1053 2.70441 22.108 2.55408 22.0695C2.40375 22.0311 2.26653 21.9529 2.15681 21.8432C2.04709 21.7335 1.96891 21.5962 1.93045 21.4459C1.892 21.2956 1.89469 21.1377 1.93825 20.9888L2.96745 17.3537Z" stroke="#073E3D" stroke-width="1.5" stroke-linecap="round" stroke-linejoin="round"/>
<path d="M8.25 9.75H15.75" stroke="#073E3D" stroke-width="1.5" stroke-linecap="round" stroke-linejoin="round"/>
<path d="M8.25 14.25H15.75" stroke="#073E3D" stroke-width="1.5" stroke-linecap="round" stroke-linejoin="round"/>
</g>
<defs>
<clipPath id="clip0_4099_3475">
<rect width="24" height="24" fill="white"/>
</clipPath>
</defs>
</svg>
