<svg width="39" height="34" viewBox="0 0 39 34" fill="none" xmlns="http://www.w3.org/2000/svg">
<path d="M27.8091 0.814637C27.3257 0.814985 26.8398 0.976769 26.4396 1.30793L24.6191 2.81463C23.7043 3.57174 23.5756 4.93472 24.3325 5.84979L24.3979 5.92886C22.433 5.86372 20.4377 6.48998 18.8025 7.84347C18.8 7.84585 18.7976 7.84828 18.7952 7.85073C18.7898 7.85446 18.7846 7.85833 18.7794 7.86233L18.2593 8.2928C18.1015 8.19835 17.9413 8.10919 17.7785 8.02639C17.1025 7.68269 16.3857 7.44105 15.6516 7.30233L15.7334 7.23472C16.6483 6.47763 16.777 5.11455 16.0202 4.19946L14.514 2.37836C13.7571 1.4633 12.3945 1.33474 11.4797 2.09185L1.85759 10.0553C0.942789 10.8124 0.814011 12.1752 1.57086 13.0903L3.07705 14.9114C3.8339 15.8265 5.19645 15.9553 6.11126 15.1982L6.19265 15.1307C6.2076 16.6767 6.68369 18.2889 7.59377 19.6592L6.54705 20.5256C5.66178 21.2584 5.52799 22.5736 6.25649 23.4545C6.70028 23.9911 7.36229 24.2429 8.01211 24.1925C7.84096 24.8217 7.96409 25.5193 8.40796 26.056C8.85176 26.5926 9.5137 26.8444 10.1635 26.794C9.99237 27.4231 10.1156 28.1208 10.5594 28.6574C11.1068 29.3193 11.986 29.5486 12.7648 29.311C12.3858 30.0319 12.4463 30.9388 12.9936 31.6005C13.7221 32.4814 15.0387 32.5964 15.924 31.8637L16.9427 31.0205L18.0442 32.3521C18.7607 33.2182 20.1136 33.1931 21.0562 32.4132C21.6534 31.9191 21.9835 31.2066 21.9634 30.5304C22.6235 30.6764 23.3848 30.4858 23.9817 29.9919C24.579 29.4978 24.9091 28.7853 24.8889 28.1091C25.5491 28.2552 26.3104 28.0646 26.9073 27.5706C27.5045 27.0765 27.8346 26.364 27.8145 25.6878C28.4747 25.8339 29.2362 25.6433 29.8331 25.1494C30.7758 24.3695 31.0587 23.0416 30.3362 22.1773L29.3132 20.9539L29.5108 20.7901C31.1503 19.4331 32.1398 17.5835 32.4411 15.635C33.2177 16.4019 34.47 16.4715 35.3282 15.7612L37.1487 14.2545C38.0636 13.4974 38.1922 12.1344 37.4353 11.2194L29.4743 1.59413C29.0486 1.07941 28.4307 0.814071 27.8091 0.814637ZM27.812 1.57489C28.2106 1.57386 28.6053 1.74684 28.8836 2.08333L36.8446 11.7086C37.3394 12.3067 37.2578 13.1697 36.6598 13.6645L34.8394 15.1712C34.2414 15.6661 33.3787 15.5846 32.884 14.9864L32.4444 14.455L24.923 5.36121C24.4283 4.76306 24.5097 3.89995 25.1076 3.40509L26.9281 1.89844C27.1897 1.68193 27.5021 1.57573 27.812 1.57489ZM12.8517 2.35917C13.2502 2.35811 13.6449 2.53087 13.9232 2.86736L15.4295 4.68846C15.9242 5.28662 15.8425 6.14968 15.2445 6.64455L5.6224 14.608C5.02445 15.1029 4.16175 15.0215 3.66702 14.4232L2.16077 12.6021C1.66604 12.0039 1.74763 11.141 2.34557 10.6461L11.9677 2.68267C12.2293 2.46618 12.5417 2.36008 12.8517 2.35917ZM24.137 6.69527C24.4532 6.6963 24.769 6.71631 25.0827 6.75708L31.7532 14.8219C31.629 16.8431 30.7095 18.8037 29.0218 20.2005L28.8213 20.3666L21.3571 11.4396C21.3529 11.4346 21.3478 11.4291 21.3433 11.4244C21.307 11.3841 21.2625 11.3519 21.2128 11.3301C21.1631 11.3082 21.1093 11.2972 21.055 11.2977C21.0013 11.2984 20.9484 11.3104 20.8996 11.3329C20.8509 11.3554 20.8074 11.3878 20.772 11.4282L18.991 12.8911L18.9899 12.8918C17.5073 14.1189 15.4194 14.0095 14.1048 12.7261L19.2673 8.45321C19.2698 8.45082 19.2722 8.4484 19.2746 8.44595C19.2802 8.44127 19.2858 8.43644 19.2911 8.43145C20.7149 7.25301 22.43 6.68713 24.137 6.69295L24.137 6.69527ZM14.848 7.96762C15.7411 8.05206 16.6191 8.29749 17.4309 8.71021C17.4974 8.74401 17.5631 8.77925 17.6286 8.81523L13.2915 12.4051C13.2132 12.4699 13.1638 12.5631 13.1543 12.6643C13.1447 12.7654 13.1757 12.8663 13.2404 12.9446C14.7892 14.8173 17.5814 15.0528 19.4787 13.4823L21.0129 12.2225L29.7478 22.6696C30.151 23.1518 30.0224 23.9983 29.3441 24.5595C28.6658 25.1207 27.8132 25.0866 27.411 24.6003L22.8737 19.1148C22.8108 19.0371 22.72 18.9871 22.6207 18.9754C22.5214 18.9638 22.4215 18.9913 22.3423 19.0523C22.263 19.1133 22.2108 19.2028 22.1966 19.3018C22.1825 19.4008 22.2076 19.5013 22.2665 19.582C22.2719 19.5893 22.2775 19.5963 22.2834 19.6031L26.8206 25.0888L26.8216 25.0902C27.223 25.5766 27.0965 26.4199 26.4185 26.9807C25.7402 27.5419 24.8876 27.5078 24.4854 27.0215L19.9481 21.536C19.8852 21.458 19.7944 21.4078 19.6949 21.396C19.5955 21.3842 19.4954 21.4118 19.416 21.4729C19.3367 21.534 19.2844 21.6237 19.2704 21.7228C19.2563 21.822 19.2817 21.9227 19.341 22.0034C19.3462 22.0106 19.3517 22.0176 19.3575 22.0244L23.895 27.5102C24.2971 27.9964 24.1712 28.8408 23.4929 29.402C22.8146 29.9632 21.9621 29.929 21.5599 29.4427L17.0225 23.9573C16.9597 23.8791 16.8688 23.8286 16.7692 23.8167C16.6697 23.8048 16.5694 23.8324 16.4899 23.8936C16.4105 23.9547 16.3582 24.0446 16.3442 24.1439C16.3303 24.2432 16.3558 24.344 16.4153 24.4247C16.4206 24.4319 16.4261 24.4389 16.4319 24.4457L20.9693 29.9315L20.9703 29.9325C21.3716 30.4189 21.2452 31.2622 20.5672 31.8231C19.8889 32.3843 19.0364 32.3501 18.6341 31.8638L17.5267 30.5251C18.282 29.7748 18.3627 28.5568 17.6752 27.7254C17.1278 27.0636 16.2487 26.8342 15.4698 27.0718C15.8488 26.3509 15.7883 25.4441 15.241 24.7824C14.7972 24.2457 14.1352 23.9939 13.4854 24.0442C13.6565 23.4151 13.5333 22.7175 13.0895 22.1809C12.6458 21.6443 11.9838 21.3925 11.334 21.4429C11.5051 20.8137 11.3819 20.116 10.9381 19.5793C10.259 18.7582 9.06937 18.6031 8.19402 19.1791C7.26768 17.7536 6.84979 16.0262 6.98258 14.4768L14.848 7.96762ZM9.33737 19.595C9.71502 19.5921 10.0873 19.7529 10.3479 20.0682C10.8113 20.6285 10.7316 21.4445 10.1595 21.918L8.69806 23.1276C8.12605 23.6011 7.30977 23.5267 6.84639 22.9664C6.38303 22.4061 6.46294 21.5902 7.03497 21.1167L8.49644 19.9071C8.7467 19.6999 9.04364 19.5976 9.33737 19.595ZM11.4888 22.1964C11.8665 22.1935 12.2388 22.3544 12.4994 22.6696C12.9628 23.23 12.8829 24.0459 12.3108 24.5194L10.8494 25.729C10.2774 26.2025 9.46124 26.1282 8.99787 25.5678C8.5345 25.0075 8.61441 24.1915 9.18646 23.7181L10.6478 22.5085C10.8981 22.3013 11.1951 22.1991 11.4888 22.1964ZM13.6402 24.7979C14.0179 24.795 14.3902 24.956 14.6508 25.2711C15.1142 25.8314 15.0343 26.6474 14.4623 27.1209L13.0009 28.3305C12.4288 28.804 11.1494 29.1462 11.1494 28.1692C10.686 27.609 10.7657 26.7929 11.3378 26.3194L12.7992 25.1098C13.0494 24.9026 13.3465 24.8005 13.6402 24.7979ZM16.0745 27.741C16.4521 27.7381 16.8244 27.8989 17.0851 28.2142C17.5484 28.7745 17.4685 29.5904 16.8965 30.0639L15.4351 31.2735C14.8631 31.747 14.0469 31.6727 13.5835 31.1124C13.1201 30.5521 13.2001 29.7361 13.7721 29.2626L15.2335 28.053C15.4838 27.8458 15.7808 27.7436 16.0745 27.741Z" fill="#073E3D" stroke="#073E3D" stroke-width="0.5"/>
</svg>
