<svg width="26" height="26" viewBox="0 0 26 26" fill="none" xmlns="http://www.w3.org/2000/svg">
<path d="M25 12.9736C25 19.1451 20.348 24.2088 14.3216 24.8945C13.8987 24.9473 13.4229 25 13 25C11.5727 25 10.2511 24.7363 8.98238 24.3143C4.3304 22.6791 1 18.1956 1 13.0264C1 7.90989 4.22466 3.53187 8.77092 1.79121C10.0925 1.31648 11.5198 1 13 1C15.5903 1 17.9692 1.79121 19.9251 3.21538C22.9912 5.32527 25 8.91209 25 12.9736Z" stroke="#073E3D" stroke-width="1.5" stroke-miterlimit="10" stroke-linecap="round" stroke-linejoin="round"/>
<path d="M13 16.2967C12.9471 15.822 13 15.3472 13.1586 14.8725C13.3171 14.4505 13.4757 14.0285 13.8458 13.7121C14.1101 13.5011 14.4273 13.2901 14.6916 13.0791C15.4845 12.4989 15.9074 11.7077 15.9074 10.7582C15.9074 9.1758 14.5859 7.85712 13 7.85712C11.4141 7.85712 10.0925 9.1758 10.0925 10.7582" stroke="#073E3D" stroke-width="1.5" stroke-miterlimit="10" stroke-linecap="round" stroke-linejoin="round"/>
<path d="M13.1057 19.7253C13.5436 19.7253 13.8986 19.3711 13.8986 18.9341C13.8986 18.4971 13.5436 18.1429 13.1057 18.1429C12.6677 18.1429 12.3127 18.4971 12.3127 18.9341C12.3127 19.3711 12.6677 19.7253 13.1057 19.7253Z" fill="#073E3D"/>
</svg>
