<svg width="227" height="311" viewBox="0 0 227 311" fill="none" xmlns="http://www.w3.org/2000/svg">
<path d="M113.398 161.208C139.772 161.208 161.153 139.82 161.153 113.436C161.153 87.0527 139.772 65.6646 113.398 65.6646C87.0228 65.6646 65.6418 87.0527 65.6418 113.436C65.6418 139.82 87.0228 161.208 113.398 161.208Z" stroke="#E8834A" stroke-width="12"/>
<path d="M113.395 6C173.723 6 220.789 50.5454 220.789 103.326C220.789 147.106 201.075 198.16 176.322 238.724C164.02 258.883 150.799 275.908 138.798 287.713C132.791 293.622 127.327 297.996 122.66 300.812C117.815 303.738 114.78 304.413 113.395 304.413C112.007 304.411 108.986 303.728 104.153 300.812C99.4845 297.993 94.0006 293.622 87.9915 287.713C75.9911 275.908 62.7928 258.883 50.4906 238.724C25.7353 198.159 6.00095 147.108 6 103.326C6 50.5471 53.0691 6.00271 113.395 6Z" stroke="#E8834A" stroke-width="12"/>
</svg>
