<svg width="37" height="38" viewBox="0 0 37 38" fill="none" xmlns="http://www.w3.org/2000/svg">
<path d="M27.2892 11.2908C27.4462 11.8785 27.5247 12.4661 27.5247 13.1272C27.5247 16.9469 24.6996 20.2523 20.9327 21.1338C20.2265 21.3541 19.4417 21.4276 18.657 21.4276C13.713 21.4276 9.78925 17.6814 9.78925 13.1272C9.78925 12.4661 9.86772 11.8785 10.0247 11.2908" stroke="#073E3D" stroke-width="1.5" stroke-miterlimit="10" stroke-linecap="round" stroke-linejoin="round"/>
<path d="M36.0001 37C35.3723 32.6662 32.7041 21.2807 18.657 21.4276C18.5785 21.4276 18.5785 21.4276 18.5001 21.4276C18.4216 21.4276 18.4216 21.4276 18.3431 21.4276C4.29602 21.2807 1.54939 32.5928 1.00006 37" stroke="#073E3D" stroke-width="1.5" stroke-miterlimit="10" stroke-linecap="round" stroke-linejoin="round"/>
<path d="M12.2222 22.7498V30.4626" stroke="#073E3D" stroke-width="1.5" stroke-miterlimit="10" stroke-linecap="round" stroke-linejoin="round"/>
<path d="M25.3276 22.7498V30.4626" stroke="#073E3D" stroke-width="1.5" stroke-miterlimit="10" stroke-linecap="round" stroke-linejoin="round"/>
<path d="M8.6123 37.0001V30.8299H28.3096V37.0001" stroke="#073E3D" stroke-width="1.5" stroke-miterlimit="10" stroke-linecap="round" stroke-linejoin="round"/>
<path d="M29.2512 11.2908H7.74897C6.72879 11.2908 5.94403 10.5563 5.94403 9.60138C5.94403 8.64647 6.72879 7.91193 7.74897 7.91193H29.2512C30.2714 7.91193 31.0561 8.64647 31.0561 9.60138C31.0561 10.4828 30.2714 11.2908 29.2512 11.2908Z" stroke="#073E3D" stroke-width="1.5" stroke-miterlimit="10" stroke-linecap="round" stroke-linejoin="round"/>
<path d="M27.4463 7.83848C27.4463 7.83848 26.3476 1.08064 23.6795 1.00718C21.0113 0.933727 19.5203 1.44791 18.5001 1.44791C17.4799 1.44791 15.9889 0.933727 13.3207 1.00718C10.6525 1.08064 9.55389 7.83848 9.55389 7.83848" stroke="#073E3D" stroke-width="1.5" stroke-miterlimit="10" stroke-linecap="round" stroke-linejoin="round"/>
</svg>
