<svg width="31" height="36" viewBox="0 0 31 36" fill="none" xmlns="http://www.w3.org/2000/svg">
<path d="M19.9185 10.5097C19.9837 10.9005 20.0488 11.3564 20.0488 11.8123C20.0488 14.6131 18.1599 16.958 15.5545 17.6093C15.0334 17.7396 14.5124 17.8047 13.9913 17.8047C10.6694 17.8047 7.93378 15.1342 7.93378 11.7472C7.93378 11.2913 7.99891 10.8353 8.06404 10.4445" fill="#F48953"/>
<path d="M28 34C27.5 30.3549 25.3571 20.9327 14.1429 21.0015C14.0714 21.0015 14.0714 21.0015 14 21.0015C13.9286 21.0015 13.9286 21.0015 13.8571 21.0015C2.64285 20.8639 0.5 30.3549 0 34" fill="#F48953"/>
<path d="M22.5891 10.3794C22.7194 10.9005 22.7845 11.4215 22.7845 12.0078C22.7845 15.3948 20.4397 18.3258 17.3132 19.1726C16.727 19.368 16.0756 19.4331 15.4243 19.4331C11.3208 19.4331 8.06409 16.1112 8.06409 12.0729C8.06409 11.4867 8.12922 10.9656 8.25949 10.4445" stroke="#073E3D" stroke-width="1.5" stroke-miterlimit="10" stroke-linecap="round" stroke-linejoin="round"/>
<path d="M29.8189 33.1765C29.2979 29.3335 27.0833 19.2377 15.4242 19.368C15.3591 19.368 15.3591 19.368 15.2939 19.368C15.2288 19.368 15.2288 19.368 15.1637 19.368C3.50457 19.2377 1.22486 29.2684 0.768921 33.1765" stroke="#073E3D" stroke-width="1.5" stroke-miterlimit="10" stroke-linecap="round" stroke-linejoin="round"/>
<path d="M10.0833 20.5403V27.3795" stroke="#073E3D" stroke-width="1.5" stroke-miterlimit="10" stroke-linecap="round" stroke-linejoin="round"/>
<path d="M20.9608 20.5403V27.3795" stroke="#073E3D" stroke-width="1.5" stroke-miterlimit="10" stroke-linecap="round" stroke-linejoin="round"/>
<path d="M6.99994 35V28H22.9999V35" fill="white"/>
<path d="M6.99994 35V28H22.9999V35" stroke="#073E3D" stroke-width="1.5" stroke-miterlimit="10" stroke-linecap="round" stroke-linejoin="round"/>
<path d="M24.2173 10.3794H6.37047C5.52372 10.3794 4.87238 9.72802 4.87238 8.88127C4.87238 8.03452 5.52372 7.38318 6.37047 7.38318H24.2173C25.0641 7.38318 25.7154 8.03452 25.7154 8.88127C25.7154 9.66289 25.0641 10.3794 24.2173 10.3794Z" fill="#00AC87" stroke="#073E3D" stroke-width="1.5" stroke-miterlimit="10" stroke-linecap="round" stroke-linejoin="round"/>
<path d="M22.7193 7.31803C22.7193 7.31803 21.8074 1.32565 19.5928 1.26052C17.3783 1.26052 16.1407 1.65133 15.2288 1.65133C14.3169 1.65133 13.1445 1.19538 10.9299 1.26052C8.71535 1.32565 7.80347 7.31803 7.80347 7.31803" stroke="#073E3D" stroke-width="1.5" stroke-miterlimit="10" stroke-linecap="round" stroke-linejoin="round"/>
</svg>
