<svg width="382" height="527" viewBox="0 0 382 527" fill="none" xmlns="http://www.w3.org/2000/svg">
<path d="M287.19 155.78C272.71 184.86 243.78 207.47 211.75 213.5C192.957 217.033 174.533 215.853 156.48 209.96C135.17 203 116.58 188.76 103.62 170.27C86.78 146.243 80.71 118.723 85.41 87.71C86.4367 80.95 88.49 73.7833 91.57 66.21C105.45 32.07 138.49 7.35 174.54 1.92C191.4 -0.630005 210.11 0.850001 226.3 6.91C250.353 15.9167 269.043 30.96 282.37 52.04C291.33 66.2133 296.493 81.78 297.86 98.74C299.513 119.16 295.957 138.173 287.19 155.78Z" fill="black"/>
<path d="M1.09001 492.44C0.956675 490.507 0.890027 489.193 0.890027 488.5C0.816693 476.9 0.806664 443.15 0.859997 387.25C0.879997 369.09 3.47002 351.78 8.63002 335.32C17.08 308.34 36.76 284.16 60.44 268.47C84.6133 252.443 111.64 244.377 141.52 244.27C166.033 244.183 193.61 244.16 224.25 244.2C236.157 244.213 246.51 244.547 255.31 245.2C266.457 246.02 278.263 248.65 290.73 253.09C311.423 260.457 329.27 271.997 344.27 287.71C359.87 304.05 371.31 324.76 376.47 346.27C378.923 356.497 380.39 366.077 380.87 375.01C381.137 379.883 381.297 388.373 381.35 400.48C381.437 421.96 381.437 451.513 381.35 489.14C381.343 490.66 381.27 491.757 381.13 492.43C381.093 492.605 381.013 492.768 380.898 492.904C380.783 493.041 380.636 493.146 380.47 493.21C371.943 496.637 363.627 499.59 355.52 502.07C313.467 514.917 270.88 522.56 227.76 525C209.287 526.047 192.533 526.353 177.5 525.92C168.83 525.67 155.59 524.98 144.86 523.99C132.68 522.863 124.377 522.043 119.95 521.53C115.05 520.97 108.83 520.083 101.29 518.87C90.8234 517.183 78.8167 514.85 65.27 511.87C50.37 508.59 34.91 504.417 18.89 499.35C13.0434 497.503 7.21003 495.343 1.39003 492.87C1.30601 492.833 1.23358 492.774 1.18068 492.698C1.12778 492.622 1.09642 492.533 1.09001 492.44Z" fill="black"/>
</svg>
